<svg width="418" height="147" viewBox="0 0 418 147" fill="none" xmlns="http://www.w3.org/2000/svg">
<path opacity="0.02" d="M10.8 0.399988C21.3333 0.399988 30.6 1.93332 38.6 4.99999C46.7333 8.06666 54 12.6667 60.4 18.8L43.8 38.4C34.2 30.8 24.1333 27 13.6 27C8.13334 27 3.93334 28.0667 1 30.2C-1.8 32.2 -3.2 35.0667 -3.2 38.8C-3.2 41.4667 -2.46666 43.6667 -0.999997 45.4C0.466669 47.1333 2.93334 48.8 6.4 50.4C9.86667 52 15.3333 54 22.8 56.4C37.0667 60.9333 47.4667 66.6667 54 73.6C60.6667 80.4 64 89.8667 64 102C64 110.8 61.7333 118.6 57.2 125.4C52.6667 132.067 46.0667 137.267 37.4 141C28.8667 144.733 18.8 146.6 7.2 146.6C-14.9333 146.6 -33 139.867 -47 126.4L-28.8 106.2C-17.7333 115.267 -6.2 119.8 5.8 119.8C12.0667 119.8 16.9333 118.467 20.4 115.8C23.8667 113 25.6 109.333 25.6 104.8C25.6 101.6 24.9333 99 23.6 97C22.2667 94.8667 19.8667 93 16.4 91.4C13.0667 89.6667 8.13334 87.8 1.6 85.8C-14.1333 80.8667 -25.2 74.9333 -31.6 68C-38 61.0667 -41.2 52.3333 -41.2 41.8C-41.2 33.5333 -39 26.2667 -34.6 20C-30.0667 13.7333 -23.8667 8.93332 -16 5.59999C-8 2.13332 0.933335 0.399988 10.8 0.399988ZM188.816 96.4C188.816 106 186.682 114.6 182.416 122.2C178.282 129.8 172.016 135.8 163.616 140.2C155.216 144.467 144.949 146.6 132.816 146.6C114.416 146.6 100.482 142.133 91.0156 133.2C81.549 124.133 76.8156 111.867 76.8156 96.4V3.99999H113.816V95.2C113.816 103.6 115.282 109.8 118.216 113.8C121.282 117.667 126.149 119.6 132.816 119.6C139.482 119.6 144.282 117.6 147.216 113.6C150.149 109.6 151.616 103.467 151.616 95.2V3.99999H188.816V96.4ZM255.508 91.8H245.308V143H208.308V3.99999H256.508C276.108 3.99999 290.708 7.53333 300.308 14.6C310.041 21.6667 314.908 32.5333 314.908 47.2C314.908 56 312.841 63.3333 308.708 69.2C304.708 75.0667 298.241 80.3333 289.308 85L323.908 143H282.708L255.508 91.8ZM245.308 66.6H257.708C270.508 66.6 276.908 60.1333 276.908 47.2C276.908 41.2 275.108 36.8 271.508 34C268.041 31.2 262.774 29.8 255.708 29.8H245.308V66.6ZM332.331 143V3.99999H417.731L413.931 30.2H369.331V63.6H408.531V89.8H369.331V143H332.331Z" fill="white"/>
</svg>
